/* XPM */
static char * C:\pvss\PVSS_DemoApplication\pictures\recycling_sw_3_xpm[] = {
"48 46 5 1",
" 	s none	m none	g4 none	g none	c none",
".	c #000000000000",
"X	c #666666666666",
"o	c #999999999999",
"O	c #FFFFFFFFFFFF",
"                                                ",
"                                                ",
"                                                ",
"                                                ",
"             ..................                 ",
"           XX          ...o.   X                ",
"           X          ...oX     .               ",
"          .          o..oXo     ..              ",
"          .        oo..oX        .....o         ",
"         ..         o...          ....          ",
"         .         o....            .           ",
"        .          o...oo          ..           ",
"        .          ......          ..ooo        ",
"        ..        ........        .....o        ",
"          XX      ......XX       ......         ",
"            XXo  ............oooo.....o         ",
"           o oXo.o...oo     o....o..o.          ",
" ........ooo.oo.....oo o  ..Xo.o..oo oX         ",
"  ..        . ooo....        ooo      X         ",
"   ..       .. ooo o        ..         .        ",
"    .         .             .          ..       ",
"   X          ..             .          ..      ",
"   X           Xo            .          ..      ",
"             o o.             .         o..     ",
"   X        o.oo.o            ..        o..     ",
"   X        .....o o      o    .        o...    ",
"   X       .o.....       ..    .        ...o    ",
"    X      ......o o     ..     X      .....    ",
"    X     o....oo O     X .     oX  o......o    ",
"     X    ..........    X ..oXXooXoo.......o    ",
"     X   o...o.    .   .    X  X     .....o     ",
"      X  ...oo     o   .            o.....o     ",
"      X o..oo       . .             .....o      ",
"       ....o       ....            o.....       ",
"       ....         ..o            ......       ",
"        ...        o...           ......        ",
"         .          ...o         o.....o        ",
"          ..       o....       o.......         ",
"           .............. o...........          ",
"             o........o . o..........           ",
"              .o.....oo  XXo....o.o.            ",
"               o   o o   XXoo..oo               ",
"                          X  o                  ",
"                             o                  ",
"                                                ",
"                                                "};
